# xmcd CD database file
#
# Track frame offsets:
#	150
#	17057
#	37442
#	54637
#	74507
#	96052
#	114917
#	130580
#	161040
#	183737
#	206757
#	226317
#	246245
#	267565
#
# Disc length: 3776 seconds
#
# Revision: 4
# Processed by: cddbd v1.5.2PL0 Copyright (c) Steve Scherf et al.
# Submitted via: CDex 1.51
#
DISCID=d10ebe0e
DTITLE=Various Artist - Wave Music Vol. 2 [CD 1)
DYEAR=1900
DGENRE=
TTITLE0=Anthony Weedon - I Do
TTITLE1=Keiko Matsui - Safari
TTITLE2=Anthony Weedon - Gunfighter
TTITLE3=Khadja Nin - Embargo
TTITLE4=Khadja Nin - Mama
TTITLE5=Eugene Ruffolo - Hold On To Faith
TTITLE6=Eugene Ruffolo - Mayan Kiss
TTITLE7=Dancing Fantasy - When
TTITLE8=Candy Dulfer - For The Love Of You
TTITLE9=Michael Paulo - That's The Way Of The World
TTITLE10=Daniel Ho - Side By Side
TTITLE11=Soul Ballet - Blu Girl
TTITLE12=Michael Paulo feat. Carl Anderson - Nature Boy
TTITLE13=Nils - Kona Girl
EXTD=
EXTT0=
EXTT1=
EXTT2=
EXTT3=
EXTT4=
EXTT5=
EXTT6=
EXTT7=
EXTT8=
EXTT9=
EXTT10=
EXTT11=
EXTT12=
EXTT13=
PLAYORDER=
